<svg height="512" viewBox="0 0 64 64" width="512" xmlns="http://www.w3.org/2000/svg" xmlns:xlink="http://www.w3.org/1999/xlink"><linearGradient id="gradient_ice" gradientUnits="userSpaceOnUse" x1="7.76" x2="64.606" y1="60.975" y2="1.029"><stop offset="0" stop-color="#F37335"/><stop offset="1" stop-color="#FDC830"/></linearGradient><linearGradient id="gradient_ice-2" x1="2.153" x2="58.998" xlink:href="#gradient_ice" y1="55.657" y2="-4.289"/><linearGradient id="gradient_ice-3" x1="15.951" x2="72.796" xlink:href="#gradient_ice" y1="68.742" y2="8.796"/><linearGradient id="gradient_ice-4" x1="22.833" x2="79.678" xlink:href="#gradient_ice" y1="75.267" y2="15.322"/><g id="chef_hat-cooking" data-name="chef hat-cooking"><path d="m61.87 21.13a12.962 12.962 0 0 0 -15.31-10.89 17 17 0 0 0 -29.13-.01 12.858 12.858 0 0 0 -6.54.45 13.134 13.134 0 0 0 -8.86 11.39 12.912 12.912 0 0 0 6.48 12.19 2.986 2.986 0 0 1 1.49 2.58v24.16a1 1 0 0 0 1 1h42a1 1 0 0 0 1-1v-24.16a3.011 3.011 0 0 1 1.55-2.61 13 13 0 0 0 6.32-13.1zm-9.87 31.87h-5v2h5v5h-40v-5h27v-2h-27v-2h40zm2.54-20.5a5 5 0 0 0 -2.54 4.34v12.16h-4v-10h-2v10h-28v-6h-2v6h-4v-12.16a4.977 4.977 0 0 0 -2.49-4.31 10.928 10.928 0 0 1 -5.48-10.32 11.092 11.092 0 0 1 7.5-9.63 10.846 10.846 0 0 1 6.16-.25 11.019 11.019 0 0 1 6.38 4.44l1.64-1.14a13.052 13.052 0 0 0 -6.26-4.84 14.991 14.991 0 0 1 25.73 1.06 14.585 14.585 0 0 1 1.74 5.6c.05.54.08 1.06.08 1.55h2q0-.825-.09-1.74a16.58 16.58 0 0 0 -1.38-5.15 10.491 10.491 0 0 1 2.1-.09 10.995 10.995 0 0 1 4.91 20.48z" fill="url(#gradient_ice)"/><path d="m16 39h2v2h-2z" fill="url(#gradient_ice-2)"/><path d="m46 35h2v2h-2z" fill="url(#gradient_ice-3)"/><path d="m41 53h4v2h-4z" fill="url(#gradient_ice-4)"/></g></svg>